<svg width="960" height="960" viewBox="0 0 960 960" fill="none" xmlns="http://www.w3.org/2000/svg">
<g clip-path="url(#clip0_36_3562)">
<path fill-rule="evenodd" clip-rule="evenodd" d="M409.446 483.292C408.263 486.739 407.423 490.295 406.941 493.908C405.698 503.089 406.756 512.434 410.02 521.105C412.261 526.972 415.596 532.572 420.436 536.572C424.262 539.796 429.03 541.694 434.025 541.981C435.343 542.033 436.662 541.943 437.96 541.714C445.816 540.296 451.834 533.864 455.934 527.021C460.97 518.435 463.946 508.798 464.628 498.867C465.31 488.936 463.68 478.983 459.865 469.789C456.786 462.529 449.919 453.429 441.81 452.046C438.983 451.567 436.077 452.069 433.575 453.469C422.773 459.245 413.973 470.989 409.814 482.269C409.685 482.613 409.566 482.947 409.446 483.292ZM446.341 463.352C445.572 463.124 444.764 463.563 444.536 464.333C444.308 465.102 444.747 465.91 445.517 466.138L446.727 466.496C458.445 484.523 457.539 509.95 444.506 527.064C444.02 527.702 444.143 528.614 444.782 529.1C445.42 529.586 446.332 529.463 446.818 528.824C460.708 510.586 461.565 483.53 448.859 464.449C448.67 464.165 448.388 463.957 448.061 463.861L446.341 463.352Z" fill="url(#paint0_linear_36_3562)"/>
<path fill-rule="evenodd" clip-rule="evenodd" d="M102.646 641.767C102.814 638.071 103.1 634.379 103.5 630.711L103.565 630.712C113.202 630.516 122.631 630.357 132.059 630.199C141.685 630.038 151.309 629.876 161.15 629.674C162.611 629.692 164.071 629.562 165.507 629.286C166.609 629.072 167.653 628.626 168.57 627.978C171.772 625.609 172.004 620.993 171.864 617.024C171.231 599.685 168.907 582.461 166.086 565.324L166.798 565.206C189.658 553.829 210.379 538.763 229.87 522.163C238.484 514.832 246.866 507.201 255.078 499.448C257.408 497.238 259.823 494.87 260.678 491.77C261.622 488.316 260.413 484.664 258.878 481.437C258.873 481.432 258.871 481.424 258.869 481.417C258.867 481.409 258.865 481.402 258.861 481.397C255.31 473.984 250.028 467.535 243.461 462.592C242.161 461.602 240.81 460.689 239.417 459.832C237.331 463.285 235.183 466.699 232.971 470.075C224.959 482.653 215.67 494.372 205.254 505.044C191.866 518.432 175.927 529.566 158.007 535.644L157.954 535.506C157.313 535.731 156.63 535.815 155.954 535.75C150.109 535.6 144.257 535.453 138.398 535.309C135.474 535.24 132.549 535.164 129.624 535.083C129.421 535.078 129.128 535.095 128.792 535.114C127.796 535.172 126.432 535.252 125.999 534.829C125.648 534.314 125.477 533.698 125.513 533.076L125.337 533.089C108 544.296 96.2387 562.615 89.1847 582.025C82.1307 601.435 79.3617 622.082 76.6387 642.547C77.256 642.527 77.8733 642.51 78.4893 642.493C79.1228 642.475 79.755 642.457 80.3847 642.437L100.132 641.847L102.646 641.767ZM240.382 475.225C240.837 474.564 240.671 473.659 240.01 473.204C239.349 472.749 238.444 472.916 237.989 473.577C225.16 492.205 209.749 508.917 192.22 523.212C191.598 523.719 191.505 524.634 192.013 525.256C192.52 525.878 193.435 525.971 194.057 525.464C211.799 510.995 227.397 494.08 240.382 475.225Z" fill="url(#paint1_linear_36_3562)"/>
<path fill-rule="evenodd" clip-rule="evenodd" d="M179.225 792.387C183.95 737.636 179.308 682.479 165.5 629.287C164.064 629.561 162.604 629.69 161.142 629.672C151.505 629.869 142.076 630.027 132.649 630.185C123.022 630.347 113.398 630.508 103.557 630.71H103.499C103.099 634.378 102.813 638.066 102.645 641.766L100.131 641.846L100.136 641.962C103.667 644.85 106.348 648.644 107.891 652.937C108.32 654.137 108.597 655.637 107.697 656.537C106.539 657.675 104.585 656.826 103.314 655.819C101.763 654.583 100.369 653.163 99.1608 651.591L99.0698 651.665C101.199 699.899 99.7078 748.442 96.0078 796.582C96.9816 797.346 98.0157 798.03 99.0998 798.627C104.473 801.669 110.777 802.629 116.813 801.326C122.848 800.022 128.194 796.546 131.834 791.558C132.103 791.19 132.356 790.822 132.603 790.443C134.523 746.646 135.592 703.04 135.73 659.195L136.451 659.077C143.9 703.612 146.243 748.851 143.434 793.916C144.003 795.292 144.999 796.449 146.275 797.216C147.515 797.995 148.863 798.589 150.275 798.977C155.137 800.334 160.256 800.49 165.192 799.433C170.128 798.375 174.733 796.136 178.613 792.906C178.808 792.754 178.994 792.591 179.178 792.428L179.225 792.387ZM163.315 650.896C163.115 650.118 162.323 649.651 161.546 649.851C160.769 650.051 160.301 650.843 160.501 651.621C168.103 681.126 171.702 711.52 171.201 741.984C171.188 742.787 171.828 743.448 172.63 743.461C173.433 743.474 174.094 742.834 174.107 742.032C174.611 711.307 170.982 680.653 163.315 650.896Z" fill="#171717"/>
<path d="M650.867 463.769C650.915 462.701 650.871 461.63 650.736 460.569L651.036 460.532C653.124 476.061 656.101 492.138 658.113 507.616C659.044 514.766 659.867 522.483 656.352 528.777C654.346 532.355 651.131 535.077 647.988 537.707C644.604 540.535 641.221 543.367 637.839 546.201C632.105 551.007 626.366 555.81 620.621 560.612C618.579 543.379 617.309 526.484 615.267 509.251L615.325 509.243C623.926 503.348 631.707 496.338 638.465 488.397C639.276 487.459 640.059 486.51 640.831 485.55C645.912 479.2 650.483 471.887 650.867 463.769Z" fill="url(#paint2_linear_36_3562)"/>
<path d="M650.735 460.566C650.871 461.627 650.915 462.698 650.866 463.766C650.482 471.884 645.911 479.194 640.833 485.544C640.061 486.504 639.278 487.453 638.467 488.391C638.484 474.125 638.41 459.877 638.243 445.648C645.112 446.783 649.848 453.534 650.735 460.566Z" fill="url(#paint3_linear_36_3562)"/>
<path d="M655.069 155.613C652.352 154.588 649.579 153.72 646.763 153.013C721.699 168.847 787.739 184.888 862.957 200.724C874.034 203.053 885.994 205.901 893.204 214.624C900.091 222.958 900.92 234.582 901.433 245.38C910.105 427.246 916.441 609.203 920.441 791.25C920.588 797.85 920.571 804.979 916.676 810.309C911.268 817.709 900.776 818.682 891.612 818.985C798.387 822.066 702.125 826.235 608.802 829.342C624.215 827.027 639.588 823.674 649.621 811.608C657.767 801.254 662.078 789.786 664.491 777.277C667.798 766.74 681.015 648.02 681.602 632.533C688.902 516.496 684.515 401.955 683.102 285.589C683.202 257.483 687.127 230.489 685.286 202.314C683.117 182.844 674.133 164.089 655.069 155.613Z" fill="#171717"/>
<path d="M528.973 354.125C529.697 355.208 530.305 356.589 529.773 357.79C529.449 358.327 529.004 358.78 528.472 359.112C527.941 359.444 527.339 359.645 526.715 359.7C524.805 360.061 522.843 360.04 520.942 359.638C519.041 359.237 517.238 358.464 515.637 357.362C512.824 355.394 510.268 351.972 511.077 349.551C511.471 348.373 512.641 347.438 514.944 347.003C520.061 346.052 526.296 350.078 528.973 354.125Z" fill="url(#paint4_linear_36_3562)"/>
<path d="M511.078 349.552C510.269 351.973 512.825 355.395 515.638 357.363C517.239 358.464 519.042 359.237 520.943 359.639C522.845 360.04 524.807 360.061 526.716 359.701C527.34 359.645 527.942 359.444 528.474 359.112C529.005 358.78 529.451 358.327 529.774 357.791L529.874 357.833C525.207 367.64 520.406 377.468 515.469 387.316C503.078 411.999 489.858 436.565 475.918 460.162C474.251 462.996 472.568 465.818 470.868 468.627C468.352 470.799 464.105 468.284 463.405 465.027C462.822 462.262 463.867 459.491 465.128 456.892C465.349 456.435 465.579 455.992 465.809 455.542C479.332 429.406 491.399 402.542 501.955 375.074C505.163 366.626 508.174 358.107 510.987 349.517L511.078 349.552Z" fill="url(#paint5_linear_36_3562)"/>
<path d="M493.158 653.709C494.479 656.192 492.768 659.394 491.088 661.792C489.182 664.492 487.246 667.249 484.621 669.253C480.321 672.531 471.421 672.785 471.034 666.897C471.004 666.18 471.071 665.462 471.234 664.763C472.519 658.986 480.046 653.707 485.248 651.995C487.879 651.135 491.306 650.995 492.896 653.264C492.994 653.407 493.081 653.555 493.158 653.709Z" fill="url(#paint6_linear_36_3562)"/>
<path d="M471.231 664.763C471.067 665.462 470.999 666.18 471.031 666.897L470.904 666.912C469.932 658.792 468.965 650.597 468.004 642.328C464.164 609.354 460.392 575.586 456.518 542.998C456.305 541.206 456.091 539.425 455.878 537.643L455.899 537.595C456.248 536.515 456.906 535.561 457.793 534.852C458.68 534.142 459.755 533.71 460.886 533.607C463.13 533.45 465.354 534.124 467.134 535.5L467.114 535.528C467.865 538.232 468.605 540.942 469.336 543.658C477.055 572.244 483.88 601.648 489.286 630.902C490.694 638.516 492.003 646.11 493.212 653.683L493.153 653.71C493.075 653.556 492.987 653.407 492.888 653.264C491.297 650.993 487.87 651.135 485.24 651.995C480.043 653.707 472.515 658.986 471.231 664.763Z" fill="url(#paint7_linear_36_3562)"/>
<path d="M450.423 781.701C447.839 787.437 444.612 792.862 440.806 797.873C436.606 803.181 431.014 807.641 424.44 809.253C414.353 811.73 404.084 807.241 393.75 805.726C390.962 805.278 388.131 805.148 385.313 805.339C391.126 803.704 396.431 800.63 400.739 796.4C405.047 792.169 408.217 786.92 409.956 781.139C423.46 781.41 436.949 781.597 450.423 781.701Z" fill="url(#paint8_linear_36_3562)"/>
<path d="M467.14 535.5C465.36 534.123 463.135 533.449 460.891 533.607C459.759 533.709 458.682 534.143 457.794 534.853C456.907 535.563 456.248 536.518 455.901 537.6L455.88 537.648C456.094 539.43 456.307 541.211 456.52 543.003L456.257 543.032C448.843 542.751 441.429 542.474 434.015 542.2L434.023 541.987C435.34 542.039 436.659 541.949 437.958 541.72C445.814 540.302 451.835 533.87 455.932 527.027C460.968 518.441 463.944 508.804 464.626 498.874C465.308 488.943 463.678 478.989 459.863 469.795C456.783 462.534 449.917 453.435 441.808 452.052V452.023C449.467 453.263 457.086 454.802 464.59 456.792L465.119 456.899C463.858 459.499 462.813 462.269 463.396 465.034C464.096 468.289 468.343 470.805 470.859 468.634C472.555 465.829 474.238 463.007 475.909 460.169C477.9 460.826 479.862 461.511 481.831 462.235C505.057 482.403 498.861 518.035 486.295 542.757C479.337 543.492 476.269 543.115 469.795 543.548L469.335 543.666C468.601 540.954 467.861 538.244 467.113 535.536L467.14 535.5Z" fill="url(#paint9_linear_36_3562)"/>
<path d="M423.748 224.552C429.628 223.602 435.42 229.87 434.009 235.661L434.121 236.561C427.051 237.457 419.991 238.395 412.942 239.375C413.338 236.471 414.208 233.652 415.516 231.03C416.612 228.948 418.228 227.186 420.207 225.914C421.092 225.616 421.946 225.236 422.76 224.78C423.085 224.685 423.415 224.609 423.748 224.552Z" fill="url(#paint10_linear_36_3562)"/>
<path d="M409.958 781.142C408.218 786.923 405.048 792.172 400.74 796.403C396.432 800.633 391.127 803.708 385.315 805.342C388.133 805.151 390.963 805.281 393.752 805.729L393.714 805.97C391.533 811.345 384.671 813.149 378.885 813.619C373.099 814.089 367.385 812.419 361.827 810.783C353.459 808.305 345.09 805.83 336.722 803.358C353.492 803.063 369.715 794.439 378.891 780.422C389.262 780.708 399.618 780.948 409.958 781.142Z" fill="url(#paint11_linear_36_3562)"/>
<path d="M408.616 483.233L409.447 483.294C408.263 486.741 407.424 490.296 406.942 493.909L378.301 489.191L341.668 483.151C337.844 482.512 333.426 481.451 331.834 477.923C330.009 473.89 333.411 469.046 337.621 467.683C341.831 466.32 346.412 467.415 350.703 468.508C360.496 471.002 370.288 473.492 380.08 475.979C389.587 478.393 399.099 480.811 408.616 483.233Z" fill="url(#paint12_linear_36_3562)"/>
<path d="M384.631 243.455C384.655 243.321 384.69 243.186 384.724 243.055C385.636 239.446 386.839 235.837 389.373 233.155C393.402 228.887 399.773 227.965 405.641 227.683C410.351 227.464 415.7 227.483 420.209 225.918C418.229 227.189 416.613 228.952 415.518 231.034C414.209 233.656 413.34 236.475 412.943 239.379C412.83 240.063 412.727 240.747 412.634 241.422C410.935 253.28 410.653 265.297 411.792 277.222C401.138 277.013 390.485 277.637 379.929 279.089C380.217 267.347 381.728 255.668 384.437 244.239C384.495 243.974 384.563 243.714 384.631 243.455Z" fill="url(#paint13_linear_36_3562)"/>
<path d="M384.695 243.042L384.724 243.052C384.69 243.187 384.655 243.322 384.631 243.452C373.011 245.202 361.403 247.041 349.809 248.967L349.802 248.909C347.938 235.409 335.092 222.173 321.472 221.987C329.98 216.974 338.096 211.325 345.752 205.087C350.978 204.365 356.3 204.828 361.323 206.443C366.346 208.057 370.941 210.782 374.768 214.414C382.342 221.725 385.837 232.588 384.695 243.042Z" fill="url(#paint14_linear_36_3562)"/>
<path d="M201.34 239.609C201.384 251.061 200.656 262.504 199.162 273.858C188.049 280.63 174.442 284.185 161.806 281.041C149.17 277.897 137.228 267.132 136.129 254.16C144.465 246.904 151.613 238.386 157.313 228.918C159.813 238.638 164.901 248.174 174.484 250.805C184.067 253.436 196.04 248.006 201.34 239.609Z" fill="url(#paint15_linear_36_3562)"/>
<path d="M120.665 507.749C119.39 509.164 118.4 510.464 116.732 510.003C116.288 509.859 115.877 509.629 115.522 509.326C115.167 509.024 114.875 508.654 114.663 508.238C114.451 507.822 114.323 507.369 114.286 506.904C114.25 506.439 114.305 505.971 114.449 505.527C114.935 504.207 116.16 503.333 117.026 502.212C121.448 496.525 115.219 487.236 119.31 481.304C121.11 478.704 124.422 477.621 127.543 477.104C130.664 476.587 133.943 476.455 136.79 475.061C139.153 473.887 141.035 471.93 142.117 469.524C142.848 467.865 143.231 465.961 144.557 464.724C145.883 463.487 148.638 463.706 148.909 465.5C149.054 466.523 148.317 467.571 148.629 468.552C149.122 470.111 151.637 469.732 152.561 468.38C153.485 467.028 153.522 465.266 154.218 463.79C154.914 462.314 156.972 461.171 158.131 462.33C158.915 463.115 158.731 464.417 158.39 465.47C158.049 466.523 157.618 467.679 158.054 468.704C158.454 469.63 160.025 469.904 160.462 469.115C160.643 468.091 161.009 467.108 161.541 466.215C161.875 465.638 162.361 465.163 162.945 464.841C163.53 464.52 164.192 464.365 164.858 464.392C166.604 464.592 167.717 466.438 167.99 468.184C168.797 473.245 164.845 478.028 160.19 480.15C159.018 480.678 157.802 481.102 156.556 481.417C152.885 482.383 148.98 482.594 145.191 483.071C140.108 483.702 134.766 485.012 131.261 488.747C126.695 493.624 126.602 501.209 128.071 507.73C128.171 508.17 128.279 508.62 128.388 509.06L128.105 509.136C128.128 510.238 127.841 511.324 127.278 512.271C126.714 513.218 125.896 513.987 124.916 514.492C123.876 514.826 122.754 514.805 121.727 514.43C120.7 514.056 119.828 513.351 119.246 512.426C118.358 510.821 119.559 509.045 120.665 507.749Z" fill="#171717"/>
<path d="M117.924 840.824C109.386 848.216 103.595 854.224 96.1094 860.963C77.3224 860.514 59.2294 861.186 40.4844 862.444C47.1945 856.232 53.5857 849.683 59.6334 842.824C79.2004 842.072 98.3644 841.576 117.924 840.824Z" fill="url(#paint16_linear_36_3562)"/>
<path d="M152.143 525.816C150.887 522.638 149.79 518.573 152.236 516.195C153.383 515.085 155.047 514.673 156.295 513.683C158.584 511.86 158.979 508.589 159.061 505.665C159.291 497.511 158.45 489.361 156.561 481.425C156.552 481.406 156.553 481.387 156.543 481.366" stroke="#171717" stroke-width="2.906" stroke-linecap="round" stroke-linejoin="round"/>
<path d="M132.45 527.252V527.233C132.278 521.013 129.894 515.117 128.387 509.07C128.278 508.629 128.17 508.18 128.07 507.74C126.601 501.219 126.694 493.633 131.26 488.757C134.76 485.022 140.107 483.712 145.19 483.081C148.979 482.604 152.884 482.393 156.555 481.427C157.802 481.112 159.018 480.688 160.189 480.159C164.844 478.038 168.796 473.254 167.989 468.194C167.716 466.448 166.603 464.603 164.857 464.402C164.191 464.374 163.53 464.529 162.945 464.85C162.36 465.172 161.875 465.646 161.54 466.224C161.008 467.117 160.643 468.1 160.461 469.124C160.392 469.412 160.332 469.7 160.273 469.988" stroke="#171717" stroke-width="2.906" stroke-linecap="round" stroke-linejoin="round"/>
<path d="M121.01 507.354C120.898 507.476 120.787 507.607 120.665 507.754C119.39 509.169 118.4 510.469 116.732 510.008C116.288 509.864 115.877 509.634 115.522 509.331C115.167 509.028 114.875 508.659 114.663 508.243C114.451 507.827 114.323 507.374 114.286 506.909C114.25 506.444 114.305 505.976 114.449 505.532C114.935 504.212 116.16 503.338 117.026 502.217C121.448 496.53 115.219 487.241 119.31 481.309C121.11 478.709 124.422 477.626 127.543 477.109C130.664 476.592 133.943 476.46 136.79 475.066C139.153 473.892 141.035 471.935 142.117 469.529C142.848 467.87 143.231 465.966 144.557 464.729C145.883 463.492 148.638 463.711 148.909 465.505C149.054 466.528 148.317 467.576 148.629 468.557C149.122 470.116 151.637 469.737 152.561 468.385C153.485 467.033 153.522 465.271 154.218 463.795C154.914 462.319 156.972 461.176 158.131 462.335C158.915 463.12 158.731 464.422 158.39 465.475C158.049 466.528 157.618 467.684 158.054 468.709C158.454 469.635 160.025 469.909 160.462 469.12C160.503 469.041 160.532 468.958 160.549 468.871" stroke="#171717" stroke-width="2.906" stroke-linecap="round" stroke-linejoin="round"/>
<path d="M128.106 509.145C128.129 510.247 127.842 511.333 127.278 512.28C126.714 513.227 125.896 513.996 124.917 514.501C123.876 514.835 122.754 514.814 121.728 514.439C120.701 514.065 119.828 513.36 119.247 512.435C118.358 510.821 119.56 509.045 120.665 507.749" stroke="#171717" stroke-width="2.906" stroke-linecap="round" stroke-linejoin="round"/>
<path d="M153.201 489.682C150.101 489.239 146.94 489.705 144.101 491.023C145.904 496.376 147.157 501.899 147.839 507.506C146.649 507.966 145.353 508.072 144.105 507.811" stroke="#171717" stroke-width="2.906" stroke-linecap="round" stroke-linejoin="round"/>
<path d="M148.946 497.062C149.483 496.841 150.067 496.759 150.643 496.823C151.22 496.887 151.771 497.096 152.246 497.429" stroke="#171717" stroke-width="2.906" stroke-linecap="round" stroke-linejoin="round"/>
<path d="M138.843 497.407C138.269 497.022 137.58 496.847 136.893 496.911C136.205 496.976 135.561 497.275 135.069 497.759C134.984 497.717 135.047 497.564 135.134 497.586" stroke="#171717" stroke-width="2.906" stroke-linecap="round" stroke-linejoin="round"/>
<path d="M142.968 516.221C142.409 516.562 141.767 516.743 141.113 516.746C140.458 516.748 139.815 516.571 139.254 516.235C138.693 515.898 138.234 515.414 137.928 514.836C137.622 514.257 137.48 513.606 137.518 512.952" stroke="#171717" stroke-width="2.906" stroke-linecap="round" stroke-linejoin="round"/>
<path d="M125.512 533.075C125.508 532.452 125.542 531.829 125.612 531.209C125.66 530.569 125.852 529.948 126.173 529.392C126.495 528.837 126.937 528.361 127.468 528C128.378 527.557 129.38 527.336 130.391 527.354L132.45 527.229C139.018 526.829 145.585 526.432 152.15 526.036C152.528 526.022 152.897 525.997 153.276 525.972C154.986 525.872 156.906 525.839 158.141 527.019C159.348 528.17 159.441 530.044 159.457 531.712C159.463 533.059 159.345 534.655 158.203 535.368C158.123 535.422 158.037 535.468 157.947 535.503C157.306 535.729 156.624 535.812 155.947 535.747C150.099 535.603 144.247 535.456 138.391 535.306C135.467 535.234 132.543 535.159 129.617 535.08C128.817 535.06 126.572 535.391 125.992 534.826C125.646 534.311 125.477 533.696 125.512 533.075Z" stroke="#171717" stroke-width="2.906" stroke-linecap="round" stroke-linejoin="round"/>
<path d="M157.983 535.651C157.992 535.651 157.992 535.642 158.002 535.643C175.922 529.565 191.861 518.431 205.249 505.043C215.666 494.371 224.954 482.652 232.966 470.074C235.18 466.698 237.328 463.284 239.412 459.831C240.805 460.688 242.156 461.601 243.456 462.591C250.023 467.534 255.305 473.983 258.856 481.396C258.865 481.406 258.864 481.425 258.873 481.436C260.408 484.663 261.617 488.315 260.673 491.769C259.818 494.869 257.403 497.237 255.073 499.447C246.861 507.2 238.479 514.831 229.865 522.162C210.374 538.762 189.653 553.828 166.793 565.205" stroke="#171717" stroke-width="2.906" stroke-linecap="round" stroke-linejoin="round"/>
<path d="M125.338 533.089C108.001 544.296 96.2277 562.626 89.1827 582.025C82.1377 601.424 79.3597 622.082 76.6367 642.547C77.8887 642.507 79.1367 642.477 80.3827 642.437L100.13 641.847C100.965 641.821 101.809 641.795 102.644 641.767" stroke="#171717" stroke-width="2.906" stroke-linecap="round" stroke-linejoin="round"/>
<path d="M102.643 641.767C102.811 638.067 103.097 634.379 103.497 630.711C106.432 602.733 115.981 575.854 131.356 552.295" stroke="#171717" stroke-width="2.906" stroke-linecap="round" stroke-linejoin="round"/>
<path d="M103.556 630.713C123.034 630.313 141.663 630.072 161.141 629.675C162.602 629.692 164.062 629.562 165.498 629.287C166.6 629.073 167.644 628.627 168.561 627.979C171.761 625.608 171.995 620.994 171.855 617.025C171.222 599.689 168.898 582.465 166.077 565.325C165.228 560.107 164.339 554.9 163.411 549.705" stroke="#171717" stroke-width="2.906" stroke-linecap="round" stroke-linejoin="round"/>
<path d="M100.134 641.963C103.666 644.851 106.346 648.645 107.889 652.938C108.318 654.138 108.589 655.638 107.695 656.538C106.537 657.678 104.582 656.828 103.312 655.82C101.762 654.584 100.367 653.164 99.1589 651.592C98.4727 650.704 97.8504 649.768 97.2969 648.792C97.2509 648.722 97.2159 648.644 97.1699 648.564" stroke="#171717" stroke-width="2.906" stroke-linecap="round" stroke-linejoin="round"/>
<path d="M84.0098 663.364C84.0338 663.229 84.0588 663.095 84.0838 662.964C84.8518 658.293 85.4271 653.591 85.8098 648.859" stroke="#171717" stroke-width="2.906" stroke-linecap="round" stroke-linejoin="round"/>
<path d="M80.3885 642.515C78.5518 650.557 77.671 658.787 77.7645 667.036C77.7795 668.413 78.0825 670.136 79.4175 670.481C79.9532 670.535 80.4929 670.428 80.9682 670.175C81.4435 669.922 81.833 669.534 82.0875 669.06C83.1294 667.347 83.7843 665.426 84.0065 663.434" stroke="#171717" stroke-width="2.906" stroke-linecap="round" stroke-linejoin="round"/>
<path d="M84.2516 661.571C84.1426 662.158 84.0606 662.765 84.0096 663.365V663.433C83.9029 664.947 83.9916 666.468 84.2736 667.96C84.2993 668.358 84.4171 668.746 84.6176 669.091C84.8182 669.437 85.0961 669.731 85.4296 669.952C85.7622 670.076 86.1237 670.101 86.4704 670.025C86.8172 669.948 87.1346 669.774 87.3846 669.522C87.8749 669.007 88.2431 668.388 88.4616 667.712C89.3692 665.369 90.0138 662.933 90.3836 660.448C90.9052 656.674 91.1948 652.871 91.2506 649.062" stroke="#171717" stroke-width="2.906" stroke-linecap="round" stroke-linejoin="round"/>
<path d="M90.4396 660.438V660.448C90.3173 662.942 90.4338 665.442 90.7876 667.914C90.7896 668.355 90.8909 668.79 91.0839 669.187C91.2769 669.583 91.5567 669.931 91.9025 670.205C92.2909 670.376 92.7228 670.421 93.138 670.334C93.5532 670.247 93.931 670.033 94.2186 669.721C94.7756 669.079 95.1704 668.313 95.3696 667.486C97.2236 661.498 97.2336 655.112 97.2196 648.829" stroke="#171717" stroke-width="2.906" stroke-linecap="round" stroke-linejoin="round"/>
<path d="M99.0688 651.663C101.198 699.898 99.7098 748.441 96.0068 796.58" stroke="#171717" stroke-width="2.906" stroke-linecap="round" stroke-linejoin="round"/>
<path d="M96.0068 796.581C96.9806 797.345 98.0146 798.029 99.0988 798.626C104.473 801.665 110.776 802.623 116.81 801.318C122.844 800.013 128.189 796.536 131.827 791.549C132.093 791.181 132.349 790.813 132.596 790.434" stroke="#171717" stroke-width="2.906" stroke-linecap="round" stroke-linejoin="round"/>
<path d="M135.725 659.187C135.587 703.032 134.518 746.638 132.598 790.435" stroke="#171717" stroke-width="2.906" stroke-linecap="round" stroke-linejoin="round"/>
<path d="M136.445 659.068C143.894 703.603 146.237 748.842 143.428 793.907" stroke="#171717" stroke-width="2.906" stroke-linecap="round" stroke-linejoin="round"/>
<path d="M165.473 629.181C165.48 629.219 165.489 629.249 165.498 629.288C179.306 682.48 183.948 737.636 179.223 792.388" stroke="#171717" stroke-width="2.906" stroke-linecap="round" stroke-linejoin="round"/>
<path d="M179.224 792.384C179.024 792.56 178.824 792.738 178.612 792.903C174.732 796.132 170.126 798.372 165.191 799.429C160.255 800.487 155.136 800.331 150.274 798.974C148.861 798.585 147.514 797.992 146.274 797.213C144.998 796.445 144.003 795.288 143.434 793.913" stroke="#171717" stroke-width="2.906" stroke-linecap="round" stroke-linejoin="round"/>
<path d="M229.982 522.307C226.715 589.142 223.182 656.857 218.769 724.035" stroke="#171717" stroke-width="2.906" stroke-linecap="round" stroke-linejoin="round"/>
<path d="M218.769 724.035C216.982 743.857 216.249 763.215 222.291 782.829C227.585 796.599 235.82 809.511 249.114 816.8C269.073 827.248 291.334 828.091 313.633 827.966C325.284 827.438 335.967 826.872 347.583 827.312C408.633 827.685 469.574 830.961 530.583 832.301C548.041 831.993 564.532 831.647 581.991 831.339L608.234 829.425C608.419 829.393 608.613 829.371 608.799 829.339C624.211 827.024 639.585 823.671 649.618 811.606C657.764 801.251 662.075 789.783 664.488 777.274C667.795 766.737 681.012 648.017 681.599 632.53C688.899 516.493 684.512 401.952 683.099 285.586C683.194 257.48 687.124 230.486 685.283 202.311C683.112 182.843 674.129 164.087 655.065 155.611C652.348 154.586 649.575 153.718 646.759 153.011C637.805 150.777 628.516 150.216 619.359 151.354C522.059 161.24 430.746 166.507 332.292 181.197C321.572 182.729 311.82 184.297 301.992 187.805C290.158 193.172 278.286 199.505 269.173 209.825C266.086 214.555 262.068 218.28 259.949 223.046C257.83 227.812 255.711 232.579 253.592 237.346C250.285 247.883 247.983 257.488 245.645 268.061C244.178 277.011 243.189 286.033 242.683 295.089C238.549 353.089 236.313 412.13 232.71 469.927" stroke="#171717" stroke-width="2.906" stroke-linecap="round" stroke-linejoin="round"/>
<path d="M643.215 152.256C644.398 152.504 645.581 152.756 646.763 153.01C721.699 168.845 787.739 184.885 862.957 200.722C874.034 203.05 885.994 205.898 893.204 214.622C900.091 222.956 900.92 234.58 901.433 245.378C910.105 427.245 916.441 609.201 920.441 791.248C920.588 797.848 920.571 804.977 916.676 810.307C911.268 817.707 900.776 818.68 891.612 818.983C798.387 822.064 702.125 826.233 608.802 829.34C607.279 829.399 605.765 829.448 604.24 829.497" stroke="#171717" stroke-width="2.906" stroke-linecap="round" stroke-linejoin="round"/>
<path d="M243.549 462.464C245.593 455.844 245.632 448.896 247.897 442.352C248.876 439.52 252.956 434.421 255.442 436.104C257.89 437.777 253.885 446.514 252.821 453.627C252.421 456.297 252.434 458.74 253.366 460.49" stroke="#171717" stroke-width="2.906" stroke-linecap="round" stroke-linejoin="round"/>
<path d="M252.877 453.637C257.706 445.762 262.954 438.151 268.599 430.837C269.182 429.983 269.916 429.242 270.766 428.651C271.189 428.318 271.704 428.122 272.242 428.091C272.78 428.06 273.314 428.195 273.773 428.478C274.231 428.761 274.591 429.178 274.805 429.673C275.018 430.167 275.075 430.716 274.966 431.243C274.812 432.308 274.458 433.334 273.921 434.266C270.262 441.356 266.049 448.145 261.321 454.571C260.553 455.647 259.779 456.714 258.999 457.771" stroke="#171717" stroke-width="2.906" stroke-linecap="round" stroke-linejoin="round"/>
<path d="M258.914 457.781C259.691 456.687 260.498 455.621 261.314 454.567C265.735 449.006 270.543 443.763 275.7 438.876C276.254 438.334 276.817 437.794 277.38 437.262C278.78 435.929 280.942 434.576 282.437 435.795C283.903 436.995 283.078 439.348 282.095 440.977C278.183 447.527 273.077 453.363 267.909 459.031C267.019 460.005 266.139 460.97 265.25 461.931" stroke="#171717" stroke-width="2.906" stroke-linecap="round" stroke-linejoin="round"/>
<path d="M265.125 461.923C266.025 460.929 266.954 459.966 267.91 459.034C271.209 455.784 274.805 452.851 278.651 450.271C279.824 449.491 281.221 448.701 282.563 449.12C283.277 449.428 283.862 449.973 284.219 450.663C284.576 451.353 284.684 452.146 284.523 452.906C284.161 454.422 283.421 455.821 282.373 456.974C279.765 460.316 276.973 463.506 274.06 466.594C269.223 471.722 264.087 476.568 258.95 481.404C259.278 481.213 259.604 481.022 259.922 480.831" stroke="#171717" stroke-width="2.906" stroke-linecap="round" stroke-linejoin="round"/>
<path d="M441.812 452.047C438.985 451.568 436.079 452.07 433.577 453.47C422.777 459.245 413.977 470.989 409.816 482.27C409.686 482.614 409.567 482.949 409.448 483.293C408.266 486.74 407.428 490.296 406.948 493.909C405.703 503.091 406.762 512.438 410.028 521.109C412.268 526.981 415.603 532.573 420.444 536.576C424.269 539.801 429.037 541.699 434.033 541.985C435.35 542.036 436.669 541.947 437.968 541.718C445.824 540.3 451.845 533.869 455.942 527.025C460.978 518.439 463.954 508.802 464.636 498.871C465.318 488.94 463.687 478.987 459.872 469.793C456.787 462.53 449.921 453.43 441.812 452.047Z" stroke="#171717" stroke-width="2.906" stroke-linecap="round" stroke-linejoin="round"/>
<path d="M469.801 543.541C476.273 543.107 479.341 543.485 486.301 542.75C498.868 518.025 505.063 482.396 481.837 462.228" stroke="#171717" stroke-width="2.906" stroke-linecap="round" stroke-linejoin="round"/>
<path d="M433.233 542.165L434.017 542.195C441.431 542.476 448.845 542.753 456.259 543.027" stroke="#171717" stroke-width="2.906" stroke-linecap="round" stroke-linejoin="round"/>
<path d="M475.847 460.14C475.866 460.15 475.896 460.151 475.914 460.162C477.905 460.819 479.867 461.504 481.836 462.228" stroke="#171717" stroke-width="2.906" stroke-linecap="round" stroke-linejoin="round"/>
<path d="M440.31 451.776C440.81 451.854 441.31 451.93 441.81 452.017C449.469 453.257 457.088 454.796 464.592 456.786" stroke="#171717" stroke-width="2.906" stroke-linecap="round" stroke-linejoin="round"/>
<path d="M467.118 535.528C467.869 538.232 468.61 540.942 469.34 543.658C477.059 572.244 483.884 601.648 489.29 630.902C490.698 638.516 492.007 646.11 493.216 653.683" stroke="#171717" stroke-width="2.906" stroke-linecap="round" stroke-linejoin="round"/>
<path d="M455.883 537.644C456.097 539.426 456.31 541.207 456.523 542.999C460.397 575.587 464.169 609.355 468.009 642.329C468.965 650.583 469.932 658.778 470.909 666.913C470.917 666.971 470.924 667.03 470.932 667.088" stroke="#171717" stroke-width="2.906" stroke-linecap="round" stroke-linejoin="round"/>
<path d="M471.033 666.9C471.421 672.788 480.319 672.535 484.62 669.256C487.245 667.256 489.182 664.495 491.087 661.795C492.767 659.395 494.478 656.195 493.157 653.712C493.079 653.557 492.991 653.408 492.892 653.266C491.301 650.995 487.874 651.137 485.244 651.997C480.044 653.709 472.515 658.988 471.23 664.765C471.068 665.464 471.002 666.183 471.033 666.9V666.9Z" stroke="#171717" stroke-width="2.906" stroke-linecap="round" stroke-linejoin="round"/>
<path d="M470.863 468.627C472.559 465.822 474.243 463 475.913 460.162C489.853 436.562 503.073 411.999 515.464 387.316C520.401 377.49 525.203 367.663 529.869 357.833C529.921 357.733 529.974 357.614 530.027 357.51" stroke="#171717" stroke-width="2.906" stroke-linecap="round" stroke-linejoin="round"/>
<path d="M511.136 349.039C511.082 349.201 511.036 349.354 510.982 349.517C508.175 358.105 505.164 366.624 501.95 375.074C491.392 402.542 479.324 429.406 465.8 455.542C465.569 455.988 465.34 456.436 465.119 456.892C463.858 459.492 462.813 462.262 463.396 465.027C464.096 468.282 468.343 470.798 470.859 468.627" stroke="#171717" stroke-width="2.906" stroke-linecap="round" stroke-linejoin="round"/>
<path d="M511.079 349.551C510.27 351.972 512.826 355.394 515.639 357.362C517.24 358.464 519.043 359.237 520.944 359.638C522.845 360.04 524.807 360.061 526.717 359.7C527.341 359.645 527.943 359.443 528.474 359.112C529.006 358.78 529.451 358.327 529.775 357.79C530.305 356.59 529.698 355.208 528.975 354.125C526.298 350.078 520.063 346.052 514.948 347.003C512.642 347.438 511.473 348.373 511.079 349.551Z" stroke="#171717" stroke-width="2.906" stroke-linecap="round" stroke-linejoin="round"/>
<path d="M408.615 483.232C399.101 480.817 389.59 478.398 380.082 475.977C370.29 473.484 360.498 470.993 350.705 468.506C346.413 467.414 341.842 466.319 337.623 467.681C333.404 469.043 330.011 473.887 331.836 477.921C333.428 481.452 337.846 482.51 341.67 483.149L378.303 489.189L406.941 493.908L407.153 493.944" stroke="#171717" stroke-width="2.906" stroke-linecap="round" stroke-linejoin="round"/>
<path d="M489.622 630.836C501.757 620.876 511.017 606.687 518.342 592.425C529.868 569.598 536.591 545.625 540.448 520.566C543.116 501.281 542.881 481.886 542.224 462.108" stroke="#171717" stroke-width="2.906" stroke-linecap="round" stroke-linejoin="round"/>
<path d="M378.265 489.431C373.95 540.431 377.559 598.731 420.8 634.29C433.947 645.45 452.3 647.114 467.824 642.352" stroke="#171717" stroke-width="2.906" stroke-linecap="round" stroke-linejoin="round"/>
<path d="M501.722 374.99C491.858 367.997 480.172 362.765 467.874 362.969C455.692 363.176 444.488 369.295 434.874 376.346C415.374 390.68 400.72 411.352 391.657 433.633C386.274 447.203 382.41 461.327 380.137 475.748" stroke="#171717" stroke-width="2.906" stroke-linecap="round" stroke-linejoin="round"/>
<path d="M542.226 462.11C539.765 436.215 534.053 407.89 515.846 387.51" stroke="#171717" stroke-width="2.906" stroke-linecap="round" stroke-linejoin="round"/>
<path d="M264.807 703.329C264.351 727.408 263.944 751.488 263.371 775.572" stroke="#171717" stroke-width="2.906" stroke-linecap="round" stroke-linejoin="round"/>
<path d="M274.061 466.301C274.056 466.397 274.056 466.494 274.061 466.591C273.295 510.646 269.724 554.03 267.837 597.974" stroke="#171717" stroke-width="2.906" stroke-linecap="round" stroke-linejoin="round"/>
<path d="M277.944 401.645C277.244 413.987 276.444 426.315 275.468 438.636" stroke="#171717" stroke-width="2.906" stroke-linecap="round" stroke-linejoin="round"/>
<path d="M287.154 260.256V260.266C285.815 272.322 284.729 284.377 283.816 296.466" stroke="#171717" stroke-width="2.906" stroke-linecap="round" stroke-linejoin="round"/>
<path d="M637.886 546.258C636.76 615.199 633.728 683.496 628.702 752.258C628.119 760.242 626.953 769.28 620.455 773.968C616.291 776.968 610.865 777.424 605.744 777.754C553.744 781.107 502.144 782.08 450.423 781.702C436.957 781.6 423.468 781.412 409.957 781.14C399.613 780.94 389.258 780.699 378.89 780.419C340.953 779.39 302.819 777.898 264.282 776.333" stroke="#171717" stroke-width="2.906" stroke-linecap="round" stroke-linejoin="round"/>
<path d="M412.825 239.386C412.864 239.379 412.903 239.38 412.942 239.372C419.997 238.398 427.057 237.46 434.122 236.558C494.189 228.829 554.506 223.481 615.072 220.514C618.762 220.333 622.806 220.273 625.672 222.592C628.888 225.205 629.421 229.829 629.71 233.959C634.595 304.649 637.467 374.972 638.242 445.653C638.411 459.888 638.486 474.136 638.466 488.396C638.471 488.46 638.471 488.525 638.466 488.59" stroke="#171717" stroke-width="2.906" stroke-linecap="round" stroke-linejoin="round"/>
<path d="M287.162 260.266C307.991 256.208 328.872 252.442 349.807 248.966C361.407 247.041 373.014 245.203 384.629 243.451C384.746 243.437 384.863 243.412 384.979 243.397" stroke="#171717" stroke-width="2.906" stroke-linecap="round" stroke-linejoin="round"/>
<path d="M434.009 235.66C435.42 229.869 429.629 223.601 423.748 224.552C423.414 224.607 423.085 224.682 422.76 224.776C421.858 225.026 420.997 225.408 420.207 225.91C418.227 227.181 416.611 228.944 415.516 231.026C414.208 233.649 413.338 236.468 412.942 239.371C412.828 240.055 412.725 240.739 412.632 241.414C410.934 253.272 410.651 265.29 411.79 277.214C401.137 277.005 390.483 277.629 379.927 279.081C379.881 279.081 379.836 279.086 379.791 279.095" stroke="#171717" stroke-width="2.906" stroke-linecap="round" stroke-linejoin="round"/>
<path d="M379.926 279.13V279.082C380.214 267.341 381.725 255.661 384.434 244.232C384.492 243.973 384.56 243.714 384.629 243.454C384.653 243.32 384.688 243.185 384.722 243.054C385.634 239.445 386.837 235.836 389.371 233.154C393.4 228.886 399.771 227.964 405.639 227.682C410.349 227.463 415.698 227.482 420.207 225.917C421.091 225.619 421.946 225.239 422.76 224.783C422.967 224.683 423.166 224.566 423.36 224.447" stroke="#171717" stroke-width="2.906" stroke-linecap="round" stroke-linejoin="round"/>
<path d="M384.695 243.041C385.837 232.587 382.342 221.724 374.767 214.42C370.94 210.788 366.345 208.064 361.322 206.45C356.299 204.835 350.977 204.371 345.751 205.093C338.096 211.331 329.979 216.981 321.471 221.993C335.092 222.179 347.938 235.411 349.801 248.915" stroke="#171717" stroke-width="2.906" stroke-linecap="round" stroke-linejoin="round"/>
<path d="M638.032 445.614C638.1 445.627 638.177 445.639 638.244 445.651C645.113 446.783 649.849 453.534 650.736 460.566C650.872 461.627 650.916 462.698 650.867 463.766C650.482 471.884 645.912 479.194 640.834 485.544C640.062 486.504 639.279 487.453 638.468 488.391C631.71 496.332 623.929 503.342 615.328 509.237" stroke="#171717" stroke-width="2.906" stroke-linecap="round" stroke-linejoin="round"/>
<path d="M615.247 509.045C615.254 509.112 615.262 509.181 615.269 509.245C617.31 526.478 618.581 543.373 620.623 560.606" stroke="#171717" stroke-width="2.906" stroke-linecap="round" stroke-linejoin="round"/>
<path d="M620.623 560.61C626.356 555.806 632.096 551.002 637.841 546.199C641.224 543.371 644.607 540.539 647.99 537.705C651.133 535.071 654.348 532.353 656.354 528.775C659.868 522.482 659.046 514.764 658.115 507.614C656.103 492.136 653.126 476.06 651.038 460.53C650.946 459.887 650.864 459.244 650.782 458.602" stroke="#171717" stroke-width="2.906" stroke-linecap="round" stroke-linejoin="round"/>
<path d="M410.16 780.423C410.093 780.663 410.025 780.902 409.96 781.143C408.221 786.924 405.05 792.173 400.743 796.404C396.435 800.634 391.129 803.708 385.317 805.343C388.135 805.152 390.966 805.282 393.754 805.73C404.087 807.246 414.354 811.73 424.443 809.257C431.018 807.645 436.605 803.184 440.81 797.877C444.616 792.866 447.842 787.441 450.427 781.705C450.542 781.477 450.647 781.238 450.763 781.011" stroke="#171717" stroke-width="2.906" stroke-linecap="round" stroke-linejoin="round"/>
<path d="M379.22 779.93C379.12 780.1 379.004 780.261 378.892 780.422C369.716 794.439 353.492 803.063 336.723 803.358C345.09 805.837 353.458 808.312 361.828 810.783C367.387 812.418 373.111 814.089 378.886 813.619C384.661 813.149 391.534 811.345 393.715 805.97" stroke="#171717" stroke-width="2.906" stroke-linecap="round" stroke-linejoin="round"/>
<path d="M199.161 273.858C200.655 262.504 201.383 251.062 201.339 239.609" stroke="#171717" stroke-width="2.906" stroke-linecap="round" stroke-linejoin="round"/>
<path d="M199.161 273.858C188.048 280.63 174.441 284.185 161.805 281.041C149.169 277.897 137.227 267.132 136.128 254.16" stroke="#171717" stroke-width="2.906" stroke-linecap="round" stroke-linejoin="round"/>
<path d="M136.128 254.16C144.464 246.904 151.612 238.386 157.312 228.918" stroke="#171717" stroke-width="2.906" stroke-linecap="round" stroke-linejoin="round"/>
<path d="M157.313 228.918C159.813 238.638 164.901 248.174 174.484 250.805C184.067 253.436 196.04 248.005 201.34 239.605" stroke="#171717" stroke-width="2.906" stroke-linecap="round" stroke-linejoin="round"/>
<path d="M267.816 598.509L271.455 598.646C272.413 598.682 273.353 598.906 274.224 599.306C275.094 599.706 275.877 600.273 276.529 600.975C277.18 601.678 277.686 602.502 278.019 603.4C278.351 604.298 278.504 605.253 278.467 606.21L275.067 695.934C275.031 696.891 274.807 697.832 274.407 698.702C274.007 699.573 273.44 700.356 272.738 701.007C272.035 701.658 271.212 702.164 270.313 702.497C269.415 702.83 268.46 702.983 267.503 702.946L264.822 702.846L259.305 702.637C258.348 702.601 257.407 702.377 256.537 701.978C255.666 701.578 254.883 701.011 254.232 700.308C253.581 699.606 253.074 698.782 252.741 697.884C252.409 696.986 252.256 696.031 252.292 695.073L255.692 605.35C255.728 604.393 255.953 603.452 256.352 602.582C256.752 601.711 257.319 600.928 258.021 600.277C258.724 599.625 259.548 599.119 260.446 598.786C261.344 598.453 262.299 598.301 263.256 598.337L267.816 598.509Z" stroke="#171717" stroke-width="2.906" stroke-linecap="round" stroke-linejoin="round"/>
<path d="M283.784 296.806L289.155 297.28C291.082 297.452 292.862 298.381 294.105 299.864C295.348 301.346 295.953 303.261 295.786 305.189L287.941 394.638C287.856 395.592 287.585 396.52 287.142 397.369C286.699 398.218 286.093 398.972 285.359 399.587C284.624 400.201 283.776 400.666 282.863 400.953C281.949 401.24 280.988 401.344 280.034 401.259L277.995 401.084L271.861 400.542C270.907 400.459 269.979 400.189 269.13 399.746C268.28 399.304 267.527 398.699 266.912 397.965C266.297 397.231 265.833 396.383 265.546 395.47C265.259 394.557 265.155 393.596 265.24 392.642L273.074 303.194C273.244 301.266 274.172 299.485 275.655 298.241C277.138 296.998 279.055 296.394 280.983 296.563L283.784 296.806Z" stroke="#171717" stroke-width="2.906" stroke-linecap="round" stroke-linejoin="round"/>
<path d="M96.0586 861.01L96.1096 860.964C103.596 854.219 109.387 848.216 117.925 840.824" stroke="#171717" stroke-width="2.906" stroke-linecap="round" stroke-linejoin="round"/>
<path d="M40.4844 862.444C47.1945 856.232 53.5857 849.683 59.6334 842.824" stroke="#171717" stroke-width="2.906" stroke-linecap="round" stroke-linejoin="round"/>
<path d="M59.6338 842.824C79.2028 842.072 98.3638 841.576 117.924 840.824" stroke="#171717" stroke-width="2.906" stroke-linecap="round" stroke-linejoin="round"/>
<path d="M40.4844 862.445C59.2294 861.187 77.3224 860.515 96.1094 860.964H96.1764" stroke="#171717" stroke-width="2.906" stroke-linecap="round" stroke-linejoin="round"/>
<path d="M99.0887 798.656C98.9277 802.39 98.9417 806.133 99.1297 809.862C99.0492 811.301 99.4678 812.724 100.315 813.89C101.469 815.155 103.384 815.29 105.097 815.341C118.284 815.724 131.512 816.555 144.645 815.307C147.612 815.023 150.74 814.568 153.051 812.688C153.569 812.285 154.008 811.789 154.346 811.226C154.63 810.773 154.801 810.259 154.846 809.726C154.989 807.754 153.254 806.215 151.639 805.087C149.77 803.776 147.829 802.558 145.877 801.36C141.055 798.414 136.161 795.56 132.042 791.716" stroke="#171717" stroke-width="2.906" stroke-linecap="round" stroke-linejoin="round"/>
<path d="M146.201 797.336C146.123 798.623 146.045 799.919 145.977 801.205" stroke="#171717" stroke-width="2.906" stroke-linecap="round" stroke-linejoin="round"/>
<path d="M154.593 811.37C165.193 812.062 175.793 812.751 186.393 813.437C188.806 813.746 191.256 813.592 193.612 812.984C195.918 812.228 198.026 810.34 198.281 807.927C198.332 807.083 198.212 806.237 197.929 805.44C197.647 804.644 197.206 803.912 196.635 803.289C195.482 802.053 194.141 801.006 192.662 800.189C188.182 797.574 183.555 795.217 178.806 793.131" stroke="#171717" stroke-width="2.906" stroke-linecap="round" stroke-linejoin="round"/>
<path d="M186.015 803.972C187.162 802.121 188.578 800.449 190.215 799.013" stroke="#171717" stroke-width="2.906" stroke-linecap="round" stroke-linejoin="round"/>
<path d="M180.635 801.956C181.817 799.881 183.223 797.941 184.828 796.172" stroke="#171717" stroke-width="2.906" stroke-linecap="round" stroke-linejoin="round"/>
<path d="M140.09 806.576C141.435 804.525 142.954 802.595 144.632 800.806" stroke="#171717" stroke-width="2.906" stroke-linecap="round" stroke-linejoin="round"/>
<path d="M134.028 803.592C135.537 801.399 137.223 799.333 139.069 797.415" stroke="#171717" stroke-width="2.906" stroke-linecap="round" stroke-linejoin="round"/>
<path d="M455.9 537.6C456.249 536.52 456.908 535.566 457.794 534.856C458.681 534.147 459.757 533.715 460.887 533.612C463.132 533.455 465.356 534.129 467.136 535.505C467.173 535.527 467.201 535.547 467.23 535.567" stroke="#171717" stroke-width="2.906" stroke-linecap="round" stroke-linejoin="round"/>
<path d="M142.022 535.474C142.961 567.268 148.476 598.867 141.944 629.996" stroke="#171717" stroke-width="2.906" stroke-linecap="round" stroke-linejoin="round"/>
<path d="M154.101 535.59C154.946 532.563 155.296 529.419 155.138 526.279" stroke="#171717" stroke-width="2.906" stroke-linecap="round" stroke-linejoin="round"/>
<path d="M147.257 535.786C147.376 532.674 147.494 529.562 147.611 526.449" stroke="#171717" stroke-width="2.906" stroke-linecap="round" stroke-linejoin="round"/>
<path d="M139.394 535.259C139.46 532.601 139.525 529.943 139.587 527.286" stroke="#171717" stroke-width="2.906" stroke-linecap="round" stroke-linejoin="round"/>
<path d="M131.584 534.958C131.212 532.465 131.215 529.93 131.594 527.438" stroke="#171717" stroke-width="2.906" stroke-linecap="round" stroke-linejoin="round"/>
<path d="M155.874 650.03L159.863 646.333" stroke="url(#paint17_linear_36_3562)" stroke-width="2.906" stroke-linecap="round" stroke-linejoin="round"/>
<path d="M146.434 659.937L151.118 664.989" stroke="url(#paint18_linear_36_3562)" stroke-width="2.906" stroke-linecap="round" stroke-linejoin="round"/>
<path d="M155.312 687.47L162.137 681.143" stroke="url(#paint19_linear_36_3562)" stroke-width="2.906" stroke-linecap="round" stroke-linejoin="round"/>
<path d="M162.205 668.061L163.93 669.921" stroke="url(#paint20_linear_36_3562)" stroke-width="2.906" stroke-linecap="round" stroke-linejoin="round"/>
<path d="M160.681 699.304L164.05 702.938" stroke="url(#paint21_linear_36_3562)" stroke-width="2.906" stroke-linecap="round" stroke-linejoin="round"/>
<path d="M155.733 721.523L160.165 717.415" stroke="url(#paint22_linear_36_3562)" stroke-width="2.906" stroke-linecap="round" stroke-linejoin="round"/>
<path d="M171.407 709.631L174.283 712.734" stroke="url(#paint23_linear_36_3562)" stroke-width="2.906" stroke-linecap="round" stroke-linejoin="round"/>
<path d="M127.107 691.533L122.342 686.393" stroke="url(#paint24_linear_36_3562)" stroke-width="2.906" stroke-linecap="round" stroke-linejoin="round"/>
<path d="M115.71 671.773L122.978 665.035" stroke="url(#paint25_linear_36_3562)" stroke-width="2.906" stroke-linecap="round" stroke-linejoin="round"/>
<path d="M124.775 649.196L121.571 645.739" stroke="url(#paint26_linear_36_3562)" stroke-width="2.906" stroke-linecap="round" stroke-linejoin="round"/>
<path d="M135.314 641.897L139.302 638.199" stroke="url(#paint27_linear_36_3562)" stroke-width="2.906" stroke-linecap="round" stroke-linejoin="round"/>
<path d="M115.947 706.163L120.22 710.771" stroke="url(#paint28_linear_36_3562)" stroke-width="2.906" stroke-linecap="round" stroke-linejoin="round"/>
<path d="M111.474 715.914L107.308 719.776" stroke="url(#paint29_linear_36_3562)" stroke-width="2.906" stroke-linecap="round" stroke-linejoin="round"/>
<path d="M118.388 763.729L124.769 757.812" stroke="url(#paint30_linear_36_3562)" stroke-width="2.906" stroke-linecap="round" stroke-linejoin="round"/>
<path d="M111.093 748.57L105.341 742.365" stroke="url(#paint31_linear_36_3562)" stroke-width="2.906" stroke-linecap="round" stroke-linejoin="round"/>
<path d="M122.731 734.813L126.72 731.116" stroke="url(#paint32_linear_36_3562)" stroke-width="2.906" stroke-linecap="round" stroke-linejoin="round"/>
<path d="M157.542 746.053L163.623 752.612" stroke="url(#paint33_linear_36_3562)" stroke-width="2.906" stroke-linecap="round" stroke-linejoin="round"/>
<path d="M169.109 743.241L173.275 739.379" stroke="url(#paint34_linear_36_3562)" stroke-width="2.906" stroke-linecap="round" stroke-linejoin="round"/>
<path d="M169.124 769.925L172.411 773.47" stroke="url(#paint35_linear_36_3562)" stroke-width="2.906" stroke-linecap="round" stroke-linejoin="round"/>
<path d="M159.248 773.314L153.841 778.326" stroke="url(#paint36_linear_36_3562)" stroke-width="2.906" stroke-linecap="round" stroke-linejoin="round"/>
<path d="M121.034 784.182L116.925 779.751" stroke="url(#paint37_linear_36_3562)" stroke-width="2.906" stroke-linecap="round" stroke-linejoin="round"/>
<path d="M106.613 772.006L102.447 775.868" stroke="url(#paint38_linear_36_3562)" stroke-width="2.906" stroke-linecap="round" stroke-linejoin="round"/>
<path d="M85.9041 473.836L88.6451 478.79L94.2791 479.34L90.4141 483.478L91.6321 489.007L86.5031 486.609L81.6201 489.475L82.3161 483.857L78.0811 480.099L83.6391 479.024L85.9041 473.836Z" stroke="#171717" stroke-width="2.906" stroke-linecap="round" stroke-linejoin="round"/>
<path d="M189.842 436.183L191.748 447.928L203.316 450.717L191.571 452.625L188.782 464.191L186.875 452.446L175.308 449.657L187.053 447.751L189.842 436.183Z" stroke="url(#paint39_linear_36_3562)" stroke-width="2.906" stroke-linecap="round" stroke-linejoin="round"/>
<path d="M106.226 459.132C103.846 455.252 101.465 451.372 99.084 447.493" stroke="url(#paint40_linear_36_3562)" stroke-width="2.906" stroke-linecap="round" stroke-linejoin="round"/>
<path d="M97.9004 458.045L107.434 448.636" stroke="url(#paint41_linear_36_3562)" stroke-width="2.906" stroke-linecap="round" stroke-linejoin="round"/>
<path d="M124.367 410.379L128.11 417.145L135.806 417.898L130.527 423.549L132.19 431.101L125.184 427.827L118.516 431.741L119.465 424.067L113.681 418.934L121.273 417.466L124.367 410.379Z" stroke="#171717" stroke-width="2.906" stroke-linecap="round" stroke-linejoin="round"/>
<path d="M207.786 578.884L200.644 567.244" stroke="#171717" stroke-width="2.906" stroke-linecap="round" stroke-linejoin="round"/>
<path d="M199.462 577.801L209 568.389" stroke="#171717" stroke-width="2.906" stroke-linecap="round" stroke-linejoin="round"/>
<path d="M289.316 176.873L282.227 153.371" stroke="#171717" stroke-width="2.906" stroke-linecap="round" stroke-linejoin="round"/>
<path d="M273.196 182.446L205.646 113.901" stroke="#171717" stroke-width="2.906" stroke-linecap="round" stroke-linejoin="round"/>
<path d="M257.842 194.198L238.9 185.309" stroke="#171717" stroke-width="2.906" stroke-linecap="round" stroke-linejoin="round"/>
<path d="M247.236 213.18L142.353 210.467" stroke="#171717" stroke-width="2.906" stroke-linecap="round" stroke-linejoin="round"/>
<path d="M310.24 175.517L331.771 99.4395" stroke="#171717" stroke-width="2.906" stroke-linecap="round" stroke-linejoin="round"/>
<path d="M151.647 251.1L159 249.291C156.236 253.549 153.472 257.807 150.708 262.064" stroke="#171717" stroke-width="2.906" stroke-linecap="round" stroke-linejoin="round"/>
<path d="M161.99 257.283C161.099 257.789 160.325 258.478 159.72 259.306C159.115 260.133 158.693 261.08 158.482 262.083C158.294 263.091 158.398 264.133 158.782 265.084C159.166 266.035 159.814 266.856 160.65 267.451C162.996 268.974 166.265 268.041 168.339 266.165C169.832 264.881 170.799 263.091 171.055 261.139C171.631 255.212 165.885 254.971 161.99 257.283Z" stroke="#171717" stroke-width="2.906" stroke-linecap="round" stroke-linejoin="round"/>
<path d="M173.406 265.936C173.517 267.175 174.037 268.342 174.886 269.252C175.734 270.161 176.861 270.762 178.09 270.959C183.326 271.49 188.797 263.154 184.444 259.165C179.921 255.02 172.901 260.661 173.406 265.936Z" stroke="#171717" stroke-width="2.906" stroke-linecap="round" stroke-linejoin="round"/>
<path d="M350.646 217.622C354.531 217.889 358.416 218.155 362.301 218.422L345.577 230.115" stroke="#171717" stroke-width="2.906" stroke-linecap="round" stroke-linejoin="round"/>
<path d="M362.936 228.084C360.131 228.431 357.572 229.859 355.804 232.065C355.202 232.734 354.76 233.53 354.511 234.395C354.261 235.259 354.211 236.169 354.364 237.055C354.934 239.288 357.295 240.609 359.564 241.014C361.141 241.317 362.766 241.26 364.317 240.847C365.869 240.435 367.308 239.678 368.526 238.632C370.233 237.08 372.499 233.032 371.154 230.649C369.873 228.383 365.223 227.812 362.936 228.084Z" stroke="#171717" stroke-width="2.906" stroke-linecap="round" stroke-linejoin="round"/>
<path d="M375.406 244.509C372.998 242.954 370.098 242.349 367.269 242.812C364.44 243.276 361.884 244.775 360.099 247.017" stroke="#171717" stroke-width="2.906" stroke-linecap="round" stroke-linejoin="round"/>
<path d="M391.4 266C389.06 264.756 387.093 262.912 385.7 260.658L403.863 258.581" stroke="#171717" stroke-width="2.906" stroke-linecap="round" stroke-linejoin="round"/>
<path d="M402.634 249.601C403.492 248.751 404.122 247.7 404.466 246.543C404.634 245.964 404.673 245.356 404.58 244.761C404.487 244.166 404.265 243.599 403.929 243.099C403.551 242.628 403.079 242.242 402.543 241.964C402.008 241.686 401.42 241.522 400.817 241.484C399.612 241.415 398.404 241.568 397.253 241.934C394.1 242.803 385.369 247.382 389.413 251.705C392.692 255.201 399.948 252.427 402.634 249.601Z" stroke="#171717" stroke-width="2.906" stroke-linecap="round" stroke-linejoin="round"/>
<path d="M411.34 231.677C408.771 230.744 406.018 230.43 403.305 230.762C400.591 231.094 397.995 232.063 395.727 233.588C391.567 236.44 399.881 236.917 401.508 236.796C403.411 236.667 405.267 236.145 406.959 235.264C408.651 234.383 410.143 233.162 411.34 231.677V231.677Z" stroke="#171717" stroke-width="2.906" stroke-linecap="round" stroke-linejoin="round"/>
<path d="M631.2 517.375C633.928 512.388 636.093 507.112 637.656 501.646C639.166 511.286 640.674 520.926 642.182 530.565" stroke="#171717" stroke-width="2.906" stroke-linecap="round" stroke-linejoin="round"/>
<path d="M646.876 515.425C647.167 516.292 647.63 517.092 648.237 517.777C648.544 518.115 648.929 518.374 649.359 518.531C649.788 518.688 650.249 518.738 650.703 518.677C652.348 518.355 652.993 516.385 653.291 514.736C654.332 508.978 654.857 502.745 652.186 497.536C649.467 492.236 646.642 497.478 645.886 500.725C644.734 505.613 645.079 510.735 646.876 515.425V515.425Z" stroke="#171717" stroke-width="2.906" stroke-linecap="round" stroke-linejoin="round"/>
<path d="M364.693 804.7C365.001 802.686 365.31 800.671 365.618 798.656L380.806 803.156" stroke="#171717" stroke-width="2.906" stroke-linecap="round" stroke-linejoin="round"/>
<path d="M372.884 796.535C373.757 798.183 375.662 798.964 377.447 799.498C379.447 800.185 381.562 800.477 383.674 800.359C385.694 800.165 387.846 799.143 388.504 797.223C388.708 796.431 388.725 795.602 388.554 794.803C388.383 794.003 388.029 793.254 387.519 792.614C385.758 790.114 381.579 787.671 378.404 788.314C375.075 788.983 370.981 792.942 372.884 796.535Z" stroke="#171717" stroke-width="2.906" stroke-linecap="round" stroke-linejoin="round"/>
<path d="M383.88 780.773C383.527 781.314 383.345 781.947 383.356 782.592C383.367 783.237 383.57 783.863 383.941 784.391C384.706 785.436 385.774 786.219 387.001 786.635C389.402 787.619 392.079 787.699 394.536 786.862C395.749 786.433 396.849 785.733 397.751 784.814C398.654 783.896 399.334 782.784 399.742 781.562" stroke="#171717" stroke-width="2.906" stroke-linecap="round" stroke-linejoin="round"/>
<path d="M405.8 802.957L404.7 798.18L425.295 802.372" stroke="#171717" stroke-width="2.906" stroke-linecap="round" stroke-linejoin="round"/>
<path d="M431.923 794.646C432.893 793.923 433.829 792.86 433.66 791.66C433.453 790.186 431.782 789.476 430.36 789.04C426.109 787.74 421.66 786.423 417.286 787.222C416.036 787.388 414.859 787.908 413.895 788.722C413.422 789.135 413.078 789.677 412.905 790.281C412.732 790.886 412.736 791.527 412.918 792.129C413.274 792.897 413.848 793.545 414.568 793.991C419.45 797.475 426.939 798.352 431.923 794.646Z" stroke="#171717" stroke-width="2.906" stroke-linecap="round" stroke-linejoin="round"/>
<path d="M420.135 781.309C420.421 782.167 420.879 782.957 421.483 783.631C422.087 784.304 422.822 784.847 423.644 785.225C425.29 785.97 427.046 786.446 428.844 786.634C430.955 787.076 433.139 787.039 435.235 786.526C436.278 786.251 437.22 785.679 437.945 784.881C438.671 784.082 439.149 783.091 439.323 782.026" stroke="#171717" stroke-width="2.906" stroke-linecap="round" stroke-linejoin="round"/>
<path d="M60.5005 851.135L68.4805 847.7L60.1055 858.531L60.9425 857.85" stroke="#171717" stroke-width="2.906" stroke-linecap="round" stroke-linejoin="round"/>
<path d="M69.142 852.693C68.5417 853.243 68.0722 853.92 67.768 854.675C67.6208 855.054 67.5783 855.466 67.6448 855.867C67.7113 856.268 67.8844 856.644 68.146 856.956C68.914 857.756 70.215 857.63 71.277 857.315C73.417 856.678 80.79 852.769 78.377 849.747C75.891 846.642 70.831 850.973 69.142 852.693Z" stroke="#171717" stroke-width="2.906" stroke-linecap="round" stroke-linejoin="round"/>
<path d="M79.1106 855.828C79.1956 856.214 79.3739 856.573 79.63 856.875C79.8861 857.176 80.2121 857.41 80.5796 857.557C81.3193 857.841 82.1186 857.937 82.9046 857.833C85.9166 857.562 92.5046 854.12 88.5246 850.755C87.8994 850.208 87.133 849.847 86.313 849.715C85.4929 849.582 84.6522 849.683 83.8866 850.005C82.2566 850.761 78.7746 853.801 79.1106 855.828Z" stroke="#171717" stroke-width="2.906" stroke-linecap="round" stroke-linejoin="round"/>
<path d="M498.424 344.5C487.389 340.251 475.544 338.528 463.756 339.457C451.968 340.386 440.539 343.944 430.307 349.869" stroke="#171717" stroke-width="2.906" stroke-linecap="round" stroke-linejoin="round"/>
<path d="M332.543 494.89C327.534 514.726 327.958 535.544 333.772 555.16" stroke="#171717" stroke-width="2.906" stroke-linecap="round" stroke-linejoin="round"/>
<path d="M506.009 652.121C524.334 641.803 539.023 626.076 548.069 607.091" stroke="#171717" stroke-width="2.906" stroke-linecap="round" stroke-linejoin="round"/>
<path d="M61.9607 653.636C60.4939 642.744 62.4267 631.666 67.4947 621.914" stroke="#171717" stroke-width="2.906" stroke-linecap="round" stroke-linejoin="round"/>
<path d="M284.243 472.592C288.42 469.041 291.734 464.587 293.936 459.566C296.137 454.545 297.169 449.089 296.951 443.611" stroke="#171717" stroke-width="2.906" stroke-linecap="round" stroke-linejoin="round"/>
<path d="M298.829 466.275C300.064 464.778 300.978 463.043 301.515 461.179C302.052 459.315 302.2 457.36 301.95 455.436" stroke="#171717" stroke-width="2.906" stroke-linecap="round" stroke-linejoin="round"/>
<g opacity="0.1">
<path d="M130.438 528.457C126.252 530.351 122.907 534.517 119.484 537.557C115.525 540.965 111.807 544.643 108.355 548.565C102.161 555.91 97.1011 564.141 93.3424 572.984C84.9144 592.484 81.0854 612.954 78.1014 633.862C76.6694 643.901 90.8634 645.953 91.9084 635.732C93.9324 616.018 95.3424 595.269 103.228 576.845C106.67 568.528 111.428 560.819 117.32 554.016C120.638 550.292 124.402 547.016 127.92 543.495C131.112 540.295 134.747 537.157 135.874 532.639C136.711 529.282 133.305 527.158 130.434 528.457H130.438Z" fill="#171717"/>
</g>
<g opacity="0.1">
<path d="M133.383 554.026C128.543 556.616 124.099 562.026 121.355 566.726C118.119 572.264 115.814 578.747 113.699 584.78C109.346 597.197 106.906 610.071 104.193 622.858C101.915 633.598 118.593 635.878 119.017 624.865C119.483 612.791 122.74 600.737 126.634 589.272C128.556 583.613 130.86 578.125 132.967 572.54C134.859 567.523 136.6 561.131 136.345 555.725C136.338 555.381 136.243 555.045 136.067 554.749C135.892 554.453 135.643 554.208 135.345 554.037C135.047 553.866 134.71 553.775 134.366 553.772C134.022 553.77 133.683 553.857 133.383 554.025V554.026Z" fill="#171717"/>
</g>
<g opacity="0.1">
<path d="M274.462 300.061C271.739 307.387 268.994 314.419 267.662 322.169C266.373 329.658 265.687 337.332 264.98 344.893C263.563 360.047 263.187 375.266 263.001 390.478C262.839 403.746 284.248 403.643 283.532 390.478C282.833 375.61 282.975 360.713 283.958 345.861C284.375 338.761 285.191 331.702 285.711 324.612C286.278 316.876 285.744 309.301 285.633 301.572C285.533 294.887 276.64 294.206 274.463 300.061H274.462Z" fill="#171717"/>
</g>
<g opacity="0.1">
<path d="M259.398 597.32C254.027 604.18 251.964 612.651 250.235 621.043C248.517 629.487 247.348 638.033 246.735 646.628C245.487 663.492 245.745 682.092 249.908 698.572C252.54 708.995 270.286 707.172 269.151 695.967C268.335 687.899 266.825 679.967 266.271 671.853C265.72 663.783 265.586 655.647 265.821 647.562C266.055 639.502 266.68 631.405 267.678 623.404C268.656 615.565 270.361 607.831 269.265 599.925C268.682 595.725 261.982 594.025 259.399 597.32H259.398Z" fill="#171717"/>
</g>
<g opacity="0.1">
<path d="M343.351 178C324.776 178.641 307.611 185.387 290.903 193.1C273.166 201.289 260.143 216.617 252.761 234.522C244.63 254.243 244.361 277.116 242.915 298.106L237.869 371.192C235.961 398.817 233.441 426.481 232.327 454.149C232.127 459.086 236.67 463.289 241.467 463.289C246.813 463.289 250.122 459.083 250.608 454.149C255.126 408.218 257.208 361.93 260.417 315.888C261.855 295.234 261.872 273.851 265.661 253.461C267.421 243.992 269.828 234.349 274.435 225.836C278.423 218.463 284.222 212.356 290.755 207.159C298.551 200.824 307.344 195.827 316.776 192.37C326.057 188.936 335.376 186.081 344.463 182.11C346.506 181.217 345.422 177.933 343.351 178.01V178Z" fill="#171717"/>
</g>
<g opacity="0.1">
<path d="M231.437 520.943C226.127 534.079 227.005 549.972 226.299 563.959L224.099 607.627C222.646 636.408 221.193 665.189 219.74 693.97C219.026 708.194 218.337 722.419 217.675 736.645C217.054 749.545 216.514 762.517 219.084 775.26C223.876 799.01 241.606 815.427 263.899 823.202C276.471 827.587 290.131 829.115 303.36 829.857C307.138 830.069 310.967 830.347 314.752 830.181C318.537 830.015 321.808 828.893 325.431 828.158C333.118 826.597 341.538 827.62 349.361 826.536C350.89 826.324 350.586 824.136 349.361 823.736C343.666 822.042 337.807 820.962 331.883 820.515C324.748 819.791 318.178 817.368 310.95 816.921C298.913 816.177 287.16 815.239 275.644 811.411C256.112 804.919 239.201 791.871 234.995 770.877C232.688 759.363 233.661 747.296 234.223 735.656C234.878 722.093 235.532 708.529 236.185 694.965C237.456 667.839 238.707 640.712 239.937 613.584L242.037 567.932C242.737 552.802 245.495 535.652 241.108 520.946C239.589 515.852 233.214 516.546 231.436 520.946L231.437 520.943Z" fill="#171717"/>
</g>
</g>
<defs>
<linearGradient id="paint0_linear_36_3562" x1="435.608" y1="451.869" x2="435.608" y2="541.995" gradientUnits="userSpaceOnUse">
<stop stop-color="#FFB800"/>
<stop offset="1" stop-color="#FF7F0A"/>
</linearGradient>
<linearGradient id="paint1_linear_36_3562" x1="168.825" y1="459.832" x2="168.825" y2="642.547" gradientUnits="userSpaceOnUse">
<stop stop-color="#FFB800"/>
<stop offset="1" stop-color="#FF7F0A"/>
</linearGradient>
<linearGradient id="paint2_linear_36_3562" x1="637.093" y1="460.532" x2="637.093" y2="560.612" gradientUnits="userSpaceOnUse">
<stop stop-color="#FFB800"/>
<stop offset="1" stop-color="#FF7F0A"/>
</linearGradient>
<linearGradient id="paint3_linear_36_3562" x1="644.564" y1="445.648" x2="644.564" y2="488.391" gradientUnits="userSpaceOnUse">
<stop stop-color="#FFB800"/>
<stop offset="1" stop-color="#FF7F0A"/>
</linearGradient>
<linearGradient id="paint4_linear_36_3562" x1="520.45" y1="346.862" x2="520.45" y2="359.956" gradientUnits="userSpaceOnUse">
<stop stop-color="#FFB800"/>
<stop offset="1" stop-color="#FF7F0A"/>
</linearGradient>
<linearGradient id="paint5_linear_36_3562" x1="496.557" y1="349.517" x2="496.557" y2="469.44" gradientUnits="userSpaceOnUse">
<stop stop-color="#FFB800"/>
<stop offset="1" stop-color="#FF7F0A"/>
</linearGradient>
<linearGradient id="paint6_linear_36_3562" x1="482.328" y1="651.417" x2="482.328" y2="671.558" gradientUnits="userSpaceOnUse">
<stop stop-color="#FFB800"/>
<stop offset="1" stop-color="#FF7F0A"/>
</linearGradient>
<linearGradient id="paint7_linear_36_3562" x1="474.545" y1="533.585" x2="474.545" y2="666.912" gradientUnits="userSpaceOnUse">
<stop stop-color="#FFB800"/>
<stop offset="1" stop-color="#FF7F0A"/>
</linearGradient>
<linearGradient id="paint8_linear_36_3562" x1="417.868" y1="781.139" x2="417.868" y2="809.984" gradientUnits="userSpaceOnUse">
<stop stop-color="#FFB800"/>
<stop offset="1" stop-color="#FF7F0A"/>
</linearGradient>
<linearGradient id="paint9_linear_36_3562" x1="465.754" y1="452.023" x2="465.754" y2="543.666" gradientUnits="userSpaceOnUse">
<stop stop-color="#FFB800"/>
<stop offset="1" stop-color="#FF7F0A"/>
</linearGradient>
<linearGradient id="paint10_linear_36_3562" x1="423.583" y1="224.456" x2="423.583" y2="239.375" gradientUnits="userSpaceOnUse">
<stop stop-color="#FFB800"/>
<stop offset="1" stop-color="#FF7F0A"/>
</linearGradient>
<linearGradient id="paint11_linear_36_3562" x1="373.34" y1="780.422" x2="373.34" y2="813.699" gradientUnits="userSpaceOnUse">
<stop stop-color="#FFB800"/>
<stop offset="1" stop-color="#FF7F0A"/>
</linearGradient>
<linearGradient id="paint12_linear_36_3562" x1="370.388" y1="467.048" x2="370.388" y2="493.909" gradientUnits="userSpaceOnUse">
<stop stop-color="#FFB800"/>
<stop offset="1" stop-color="#FF7F0A"/>
</linearGradient>
<linearGradient id="paint13_linear_36_3562" x1="400.069" y1="225.918" x2="400.069" y2="279.089" gradientUnits="userSpaceOnUse">
<stop stop-color="#FFB800"/>
<stop offset="1" stop-color="#FF7F0A"/>
</linearGradient>
<linearGradient id="paint14_linear_36_3562" x1="353.189" y1="204.756" x2="353.189" y2="248.967" gradientUnits="userSpaceOnUse">
<stop stop-color="#FFB800"/>
<stop offset="1" stop-color="#FF7F0A"/>
</linearGradient>
<linearGradient id="paint15_linear_36_3562" x1="168.735" y1="228.918" x2="168.735" y2="282.197" gradientUnits="userSpaceOnUse">
<stop stop-color="#FFB800"/>
<stop offset="1" stop-color="#FF7F0A"/>
</linearGradient>
<linearGradient id="paint16_linear_36_3562" x1="79.2044" y1="840.824" x2="79.2044" y2="862.444" gradientUnits="userSpaceOnUse">
<stop stop-color="#FFB800"/>
<stop offset="1" stop-color="#FF7F0A"/>
</linearGradient>
<linearGradient id="paint17_linear_36_3562" x1="157.869" y1="646.333" x2="157.869" y2="650.03" gradientUnits="userSpaceOnUse">
<stop stop-color="#FFB800"/>
<stop offset="1" stop-color="#FF7F0A"/>
</linearGradient>
<linearGradient id="paint18_linear_36_3562" x1="148.776" y1="659.937" x2="148.776" y2="664.989" gradientUnits="userSpaceOnUse">
<stop stop-color="#FFB800"/>
<stop offset="1" stop-color="#FF7F0A"/>
</linearGradient>
<linearGradient id="paint19_linear_36_3562" x1="158.725" y1="681.143" x2="158.725" y2="687.47" gradientUnits="userSpaceOnUse">
<stop stop-color="#FFB800"/>
<stop offset="1" stop-color="#FF7F0A"/>
</linearGradient>
<linearGradient id="paint20_linear_36_3562" x1="163.068" y1="668.061" x2="163.068" y2="669.921" gradientUnits="userSpaceOnUse">
<stop stop-color="#FFB800"/>
<stop offset="1" stop-color="#FF7F0A"/>
</linearGradient>
<linearGradient id="paint21_linear_36_3562" x1="162.365" y1="699.304" x2="162.365" y2="702.938" gradientUnits="userSpaceOnUse">
<stop stop-color="#FFB800"/>
<stop offset="1" stop-color="#FF7F0A"/>
</linearGradient>
<linearGradient id="paint22_linear_36_3562" x1="157.949" y1="717.415" x2="157.949" y2="721.523" gradientUnits="userSpaceOnUse">
<stop stop-color="#FFB800"/>
<stop offset="1" stop-color="#FF7F0A"/>
</linearGradient>
<linearGradient id="paint23_linear_36_3562" x1="172.845" y1="709.631" x2="172.845" y2="712.734" gradientUnits="userSpaceOnUse">
<stop stop-color="#FFB800"/>
<stop offset="1" stop-color="#FF7F0A"/>
</linearGradient>
<linearGradient id="paint24_linear_36_3562" x1="124.724" y1="686.393" x2="124.724" y2="691.533" gradientUnits="userSpaceOnUse">
<stop stop-color="#FFB800"/>
<stop offset="1" stop-color="#FF7F0A"/>
</linearGradient>
<linearGradient id="paint25_linear_36_3562" x1="119.344" y1="665.035" x2="119.344" y2="671.773" gradientUnits="userSpaceOnUse">
<stop stop-color="#FFB800"/>
<stop offset="1" stop-color="#FF7F0A"/>
</linearGradient>
<linearGradient id="paint26_linear_36_3562" x1="123.173" y1="645.739" x2="123.173" y2="649.196" gradientUnits="userSpaceOnUse">
<stop stop-color="#FFB800"/>
<stop offset="1" stop-color="#FF7F0A"/>
</linearGradient>
<linearGradient id="paint27_linear_36_3562" x1="137.308" y1="638.199" x2="137.308" y2="641.897" gradientUnits="userSpaceOnUse">
<stop stop-color="#FFB800"/>
<stop offset="1" stop-color="#FF7F0A"/>
</linearGradient>
<linearGradient id="paint28_linear_36_3562" x1="118.084" y1="706.163" x2="118.084" y2="710.771" gradientUnits="userSpaceOnUse">
<stop stop-color="#FFB800"/>
<stop offset="1" stop-color="#FF7F0A"/>
</linearGradient>
<linearGradient id="paint29_linear_36_3562" x1="109.391" y1="715.914" x2="109.391" y2="719.776" gradientUnits="userSpaceOnUse">
<stop stop-color="#FFB800"/>
<stop offset="1" stop-color="#FF7F0A"/>
</linearGradient>
<linearGradient id="paint30_linear_36_3562" x1="121.578" y1="757.812" x2="121.578" y2="763.729" gradientUnits="userSpaceOnUse">
<stop stop-color="#FFB800"/>
<stop offset="1" stop-color="#FF7F0A"/>
</linearGradient>
<linearGradient id="paint31_linear_36_3562" x1="108.217" y1="742.365" x2="108.217" y2="748.57" gradientUnits="userSpaceOnUse">
<stop stop-color="#FFB800"/>
<stop offset="1" stop-color="#FF7F0A"/>
</linearGradient>
<linearGradient id="paint32_linear_36_3562" x1="124.726" y1="731.116" x2="124.726" y2="734.813" gradientUnits="userSpaceOnUse">
<stop stop-color="#FFB800"/>
<stop offset="1" stop-color="#FF7F0A"/>
</linearGradient>
<linearGradient id="paint33_linear_36_3562" x1="160.582" y1="746.053" x2="160.582" y2="752.612" gradientUnits="userSpaceOnUse">
<stop stop-color="#FFB800"/>
<stop offset="1" stop-color="#FF7F0A"/>
</linearGradient>
<linearGradient id="paint34_linear_36_3562" x1="171.192" y1="739.379" x2="171.192" y2="743.241" gradientUnits="userSpaceOnUse">
<stop stop-color="#FFB800"/>
<stop offset="1" stop-color="#FF7F0A"/>
</linearGradient>
<linearGradient id="paint35_linear_36_3562" x1="170.768" y1="769.925" x2="170.768" y2="773.47" gradientUnits="userSpaceOnUse">
<stop stop-color="#FFB800"/>
<stop offset="1" stop-color="#FF7F0A"/>
</linearGradient>
<linearGradient id="paint36_linear_36_3562" x1="156.544" y1="773.314" x2="156.544" y2="778.326" gradientUnits="userSpaceOnUse">
<stop stop-color="#FFB800"/>
<stop offset="1" stop-color="#FF7F0A"/>
</linearGradient>
<linearGradient id="paint37_linear_36_3562" x1="118.979" y1="779.751" x2="118.979" y2="784.182" gradientUnits="userSpaceOnUse">
<stop stop-color="#FFB800"/>
<stop offset="1" stop-color="#FF7F0A"/>
</linearGradient>
<linearGradient id="paint38_linear_36_3562" x1="104.53" y1="772.006" x2="104.53" y2="775.868" gradientUnits="userSpaceOnUse">
<stop stop-color="#FFB800"/>
<stop offset="1" stop-color="#FF7F0A"/>
</linearGradient>
<linearGradient id="paint39_linear_36_3562" x1="189.312" y1="436.183" x2="189.312" y2="464.191" gradientUnits="userSpaceOnUse">
<stop stop-color="#FFB800"/>
<stop offset="1" stop-color="#FF7F0A"/>
</linearGradient>
<linearGradient id="paint40_linear_36_3562" x1="102.655" y1="447.493" x2="102.655" y2="459.132" gradientUnits="userSpaceOnUse">
<stop stop-color="#FFB800"/>
<stop offset="1" stop-color="#FF7F0A"/>
</linearGradient>
<linearGradient id="paint41_linear_36_3562" x1="102.667" y1="448.636" x2="102.667" y2="458.045" gradientUnits="userSpaceOnUse">
<stop stop-color="#FFB800"/>
<stop offset="1" stop-color="#FF7F0A"/>
</linearGradient>
<clipPath id="clip0_36_3562">
<rect width="883" height="767" fill="white" transform="translate(39 97)"/>
</clipPath>
</defs>
</svg>
